<svg width="282" height="262" viewBox="0 0 282 262" fill="none" xmlns="http://www.w3.org/2000/svg">
<path d="M91.6323 122.916H126.311V161.245H91.6323V122.916ZM25.4046 154.205H192.278V236.598H25.4046V154.205ZM158.382 181.582H59.5614V209.221H158.382V181.582ZM0.112858 104.925H218.352V132.563H0.112858V104.925ZM91.6323 0.368653H121.357V7.66935C121.357 50.1698 85.3746 85.1089 23.0579 93.1918L10.8032 66.3357C65.0369 59.8172 91.6323 32.7003 91.6323 7.66935V0.368653ZM97.3686 0.368653H127.093V7.66935C127.093 32.4396 153.688 59.8172 207.661 66.3357L195.407 93.1918C133.09 85.1089 97.3686 49.9091 97.3686 7.66935V0.368653ZM281.166 185.063L281.039 209.634C281.039 219.056 278.662 228.562 273.909 238.153C269.241 247.744 263.3 255.595 256.085 261.706L236.988 251.903C239.11 247.998 241.19 244.094 243.227 240.19C245.264 236.285 246.961 231.999 248.319 227.331C249.677 222.663 250.356 217.358 250.356 211.417V185.063H281.166Z" fill="url(#paint0_linear_106_868)"/>
<defs>
<linearGradient id="paint0_linear_106_868" x1="143" y1="-43" x2="143" y2="295.961" gradientUnits="userSpaceOnUse">
<stop stop-color="#0367A6"/>
<stop offset="0.5" stop-color="#0487D9"/>
<stop offset="1" stop-color="#80DDF2"/>
</linearGradient>
</defs>
</svg>
