<svg width="25" height="25" viewBox="0 0 25 25" fill="none" xmlns="http://www.w3.org/2000/svg">
<circle cx="12.5" cy="12.5" r="12.5" fill="#80DDF2" fill-opacity="0.2"/>
<g clip-path="url(#clip0_2_90)">
<path d="M21 14.5C21 15.3333 20.7083 16.0417 20.125 16.625C19.5417 17.2083 18.8333 17.5 18 17.5V15.5C18.2833 15.5 18.5208 15.4042 18.7125 15.2125C18.9042 15.0208 19 14.7833 19 14.5C19 14.2167 18.9042 13.9792 18.7125 13.7875C18.5208 13.5958 18.2833 13.5 18 13.5C17.7167 13.5 17.4792 13.5958 17.2875 13.7875C17.0958 13.9792 17 14.2167 17 14.5V24H15V14.5C15 13.6667 15.2917 12.9583 15.875 12.375C16.4583 11.7917 17.1667 11.5 18 11.5C18.8333 11.5 19.5417 11.7917 20.125 12.375C20.7083 12.9583 21 13.6667 21 14.5ZM11 24H9V10.5C9 10.0667 8.85833 9.70833 8.575 9.425C8.29167 9.14167 7.93333 9 7.5 9C7.06667 9 6.70833 9.14167 6.425 9.425C6.14167 9.70833 6 10.0667 6 10.5C6 10.9333 6.14167 11.2917 6.425 11.575C6.70833 11.8583 7.06667 12 7.5 12L7.5 14C6.51667 14 5.6875 13.6625 5.0125 12.9875C4.3375 12.3125 4 11.4833 4 10.5C4 9.51667 4.3375 8.6875 5.0125 8.0125C5.6875 7.3375 6.51667 7 7.5 7C8.48333 7 9.3125 7.3375 9.9875 8.0125C10.6625 8.6875 11 9.51667 11 10.5V24ZM19 7.5H17C17 7.06667 16.8583 6.70833 16.575 6.425C16.2917 6.14167 15.9333 6 15.5 6C15.0667 6 14.7083 6.14167 14.425 6.425C14.1417 6.70833 14 7.06667 14 7.5L14 24H12L12 7.5C12 6.51667 12.3375 5.6875 13.0125 5.0125C13.6875 4.3375 14.5167 4 15.5 4C16.4833 4 17.3125 4.3375 17.9875 5.0125C18.6625 5.6875 19 6.51667 19 7.5Z" fill="#0487D9"/>
</g>
<defs>
<clipPath id="clip0_2_90">
<rect x="3" y="23" width="20" height="20" rx="10" transform="rotate(-90 3 23)" fill="white"/>
</clipPath>
</defs>
</svg>
