<svg width="28" height="24" viewBox="0 0 28 24" fill="none" xmlns="http://www.w3.org/2000/svg">
<path fill-rule="evenodd" clip-rule="evenodd" d="M8.66667 1.33333C8.66667 0.597333 9.21734 0 9.89734 0H18.1027C18.7827 0 19.3333 0.597333 19.3333 1.33333C19.3333 2.06933 18.7827 2.66667 18.1027 2.66667H9.89734C9.21734 2.66667 8.66667 2.06933 8.66667 1.33333ZM11.0373 24H16.9627C21.124 24 23.2053 24 24.7 23.0373C25.3431 22.6239 25.8985 22.0879 26.3347 21.46C27.3333 20.02 27.3333 18.0133 27.3333 14C27.3333 9.98667 27.3333 7.98133 26.3333 6.54C25.8976 5.91215 25.3427 5.37619 24.7 4.96267C23.2053 4 21.124 4 16.9627 4H11.0373C6.876 4 4.79467 4 3.3 4.96267C2.65737 5.37622 2.10238 5.91218 1.66667 6.54C0.666668 7.98 0.666668 9.98667 0.666668 13.9973V14C0.666668 18.0133 0.666668 20.0187 1.66533 21.46C2.09733 22.084 2.652 22.62 3.3 23.0373C4.79467 24 6.876 24 11.0373 24ZM8.444 14C8.444 11.04 10.932 8.64267 14 8.64267C17.068 8.64267 19.556 11.0413 19.556 14C19.556 16.9587 17.0667 19.3573 14 19.3573C10.932 19.3573 8.444 16.9573 8.444 14ZM10.6667 14C10.6667 12.224 12.16 10.7867 14 10.7867C15.84 10.7867 17.3333 12.2253 17.3333 14C17.3333 15.7747 15.84 17.2133 14 17.2133C12.16 17.2133 10.6667 15.7747 10.6667 14ZM22.148 8.64267C21.5347 8.64267 21.0373 9.12267 21.0373 9.71467C21.0373 10.3053 21.5347 10.7853 22.148 10.7853H22.8893C23.5027 10.7853 24 10.3053 24 9.71467C24 9.12267 23.5027 8.64267 22.8893 8.64267H22.148Z" fill="#242760" fill-opacity="0.81"/>
</svg>
