<svg width="25" height="25" viewBox="0 0 25 25" fill="none" xmlns="http://www.w3.org/2000/svg">
<path d="M11.0665 19.4904H13.4423V17.1026H11.0665V19.4904ZM12.2544 0.387817C10.6945 0.387817 9.14981 0.696632 7.70862 1.29663C6.26744 1.89662 4.95794 2.77605 3.85491 3.8847C1.62723 6.12372 0.375732 9.16047 0.375732 12.3269C0.375732 15.4934 1.62723 18.5301 3.85491 20.7691C4.95794 21.8778 6.26744 22.7572 7.70862 23.3572C9.14981 23.9572 10.6945 24.266 12.2544 24.266C15.4048 24.266 18.4262 23.0082 20.6539 20.7691C22.8815 18.5301 24.133 15.4934 24.133 12.3269C24.133 10.7591 23.8258 9.20654 23.2288 7.75802C22.6319 6.30951 21.7569 4.99335 20.6539 3.8847C19.5508 2.77605 18.2413 1.89662 16.8002 1.29663C15.359 0.696632 13.8143 0.387817 12.2544 0.387817ZM12.2544 21.8782C7.0159 21.8782 2.75146 17.5921 2.75146 12.3269C2.75146 7.06178 7.0159 2.77564 12.2544 2.77564C17.4929 2.77564 21.7573 7.06178 21.7573 12.3269C21.7573 17.5921 17.4929 21.8782 12.2544 21.8782ZM12.2544 5.16346C10.9942 5.16346 9.78567 5.66661 8.8946 6.56221C8.00352 7.45782 7.50293 8.67252 7.50293 9.9391H9.87866C9.87866 9.30581 10.129 8.69846 10.5745 8.25066C11.02 7.80285 11.6243 7.55128 12.2544 7.55128C12.8845 7.55128 13.4887 7.80285 13.9343 8.25066C14.3798 8.69846 14.6301 9.30581 14.6301 9.9391C14.6301 12.3269 11.0665 12.0284 11.0665 15.9087H13.4423C13.4423 13.2224 17.0058 12.9239 17.0058 9.9391C17.0058 8.67252 16.5053 7.45782 15.6142 6.56221C14.7231 5.66661 13.5146 5.16346 12.2544 5.16346Z" fill="#544C4C"/>
</svg>
