<svg width="22" height="21" viewBox="0 0 22 21" fill="none" xmlns="http://www.w3.org/2000/svg">
<path d="M1.73761 17.4133C1.73761 16.2102 2.23675 15.0564 3.12522 14.2057C4.0137 13.3549 5.21873 12.877 6.47522 12.877H15.9504C17.2069 12.877 18.412 13.3549 19.3004 14.2057C20.1889 15.0564 20.688 16.2102 20.688 17.4133C20.688 18.0149 20.4385 18.5918 19.9942 19.0171C19.55 19.4425 18.9475 19.6814 18.3192 19.6814H4.10641C3.47817 19.6814 2.87565 19.4425 2.43142 19.0171C1.98718 18.5918 1.73761 18.0149 1.73761 17.4133Z" stroke="#544C4C" stroke-width="2" stroke-linejoin="round"/>
<path d="M11.2128 8.34072C13.1752 8.34072 14.766 6.8175 14.766 4.9385C14.766 3.05951 13.1752 1.53629 11.2128 1.53629C9.25043 1.53629 7.65961 3.05951 7.65961 4.9385C7.65961 6.8175 9.25043 8.34072 11.2128 8.34072Z" stroke="#544C4C" stroke-width="2"/>
</svg>
