<svg width="23" height="27" viewBox="0 0 23 27" fill="none" xmlns="http://www.w3.org/2000/svg">
<path d="M4.10641 21.5474V11.3407C4.10641 9.53607 4.85512 7.80534 6.18784 6.52926C7.52055 5.25318 9.32809 4.53629 11.2128 4.53629C13.0976 4.53629 14.9051 5.25318 16.2378 6.52926C17.5705 7.80534 18.3192 9.53607 18.3192 11.3407V21.5474M4.10641 21.5474H18.3192M4.10641 21.5474H1.73761M18.3192 21.5474H20.688M10.0284 24.9496H12.3972" stroke="#544C4C" stroke-width="2.66667" stroke-linecap="round" stroke-linejoin="round"/>
<path d="M11.2128 4.53629C11.867 4.53629 12.3972 4.02855 12.3972 3.40222C12.3972 2.77588 11.867 2.26814 11.2128 2.26814C10.5587 2.26814 10.0284 2.77588 10.0284 3.40222C10.0284 4.02855 10.5587 4.53629 11.2128 4.53629Z" stroke="#544C4C" stroke-width="2.66667"/>
</svg>
