<svg width="25" height="25" viewBox="0 0 25 25" fill="none" xmlns="http://www.w3.org/2000/svg">
<path d="M12.2544 7.80128V17.3526M1.5636 12.5769C1.5636 13.988 1.84012 15.3853 2.37739 16.6889C2.91465 17.9926 3.70213 19.1771 4.69486 20.1749C5.68759 21.1727 6.86613 21.9642 8.1632 22.5042C9.46027 23.0442 10.8505 23.3221 12.2544 23.3221C13.6583 23.3221 15.0485 23.0442 16.3456 22.5042C17.6426 21.9642 18.8212 21.1727 19.8139 20.1749C20.8067 19.1771 21.5941 17.9926 22.1314 16.6889C22.6687 15.3853 22.9452 13.988 22.9452 12.5769C22.9452 11.1658 22.6687 9.76858 22.1314 8.46492C21.5941 7.16125 20.8067 5.97671 19.8139 4.97892C18.8212 3.98114 17.6426 3.18966 16.3456 2.64966C15.0485 2.10966 13.6583 1.83173 12.2544 1.83173C10.8505 1.83173 9.46027 2.10966 8.1632 2.64966C6.86613 3.18966 5.68759 3.98114 4.69486 4.97892C3.70213 5.97671 2.91465 7.16125 2.37739 8.46492C1.84012 9.76858 1.5636 11.1658 1.5636 12.5769Z" stroke="#544C4C" stroke-width="2.66667" stroke-linecap="round" stroke-linejoin="round"/>
</svg>
