<svg width="14" height="24" viewBox="0 0 14 24" fill="none" xmlns="http://www.w3.org/2000/svg">
<path d="M11.3496 13.0068C11.3496 12.7191 11.2362 12.4673 11.0093 12.2515L6.03711 7.3291C5.85449 7.14648 5.63314 7.05518 5.37305 7.05518C5.10189 7.05518 4.87223 7.14925 4.68408 7.3374C4.49593 7.52002 4.40186 7.74414 4.40186 8.00977C4.40186 8.27539 4.50423 8.51058 4.70898 8.71533L9.06689 13.0068L4.70898 17.2983C4.50423 17.5031 4.40186 17.7383 4.40186 18.0039C4.40186 18.2695 4.49593 18.4964 4.68408 18.6846C4.87223 18.8672 5.10189 18.9585 5.37305 18.9585C5.63314 18.9585 5.85449 18.8672 6.03711 18.6846L11.0093 13.7622C11.1255 13.646 11.2113 13.527 11.2666 13.4053C11.3219 13.2835 11.3496 13.1507 11.3496 13.0068Z" fill="#007AFF"/>
</svg>
